<?xml version="1.0" encoding="UTF-8"?>
<svg id="Layer_2" data-name="Layer 2" xmlns="http://www.w3.org/2000/svg" viewBox="0 0 1453.73 737.94">
  <defs>
    <style>
      .cls-1 {
        fill: #003787;
      }

      .cls-2 {
        fill: #0048bc;
      }

      .cls-3 {
        fill: #fff;
      }

      .cls-4 {
        fill: #ffd400;
      }

      .cls-5 {
        fill: #9e0505;
      }

      .cls-6 {
        fill: #db0000;
      }

      .cls-7 {
        fill: #cc9200;
      }
    </style>
  </defs>
  <g id="Capa_1" data-name="Capa 1">
    <g>
      <g>
        <path class="cls-1" d="M43.22,556.58v30.47h29.56v6.83h-29.56v36.73h-7.5v-80.91h39.44v6.88h-31.94Z"/>
        <path class="cls-1" d="M175.25,630.61v-80.91h39.44v6.88h-31.94v29.68h29.56v6.77h-29.56v30.75h33.74v6.83h-41.24Z"/>
        <path class="cls-1" d="M317.84,630.61v-80.91h21.27c13.84,0,24.3,3.32,31.37,9.96,7.07,6.64,10.61,16.45,10.61,29.43,0,6.24-.99,11.92-2.96,17.04-1.97,5.12-4.82,9.49-8.55,13.12-3.72,3.63-8.24,6.43-13.54,8.41-5.3,1.97-11.28,2.96-17.94,2.96h-20.25Zm7.5-74.03v67.2h12.41c5.57,0,10.54-.75,14.92-2.26s8.1-3.71,11.14-6.63c3.05-2.91,5.37-6.52,6.97-10.8,1.6-4.29,2.4-9.22,2.4-14.78,0-21.82-11.53-32.72-34.59-32.72h-13.26Z"/>
        <path class="cls-1" d="M481.75,630.61v-80.91h39.44v6.88h-31.94v29.68h29.56v6.77h-29.56v30.75h33.74v6.83h-41.24Z"/>
        <path class="cls-1" d="M668.4,630.61l-12.19-23.19c-1.21-2.29-2.37-4.21-3.5-5.75-1.13-1.54-2.3-2.77-3.5-3.7-1.21-.92-2.49-1.58-3.86-1.97-1.37-.4-2.91-.59-4.6-.59h-8.91v35.21h-7.5v-80.91h23.3c3.05,0,5.99,.45,8.83,1.35,2.84,.9,5.37,2.24,7.59,4.01,2.22,1.77,4,3.99,5.33,6.66,1.34,2.67,2,5.77,2,9.31,0,2.86-.43,5.49-1.3,7.9-.87,2.41-2.1,4.54-3.7,6.4-1.6,1.86-3.54,3.44-5.81,4.74-2.28,1.3-4.84,2.27-7.7,2.91v.23c1.09,.45,2.09,1.03,2.99,1.75,.9,.71,1.78,1.58,2.62,2.6,.84,1.02,1.68,2.18,2.51,3.5,.83,1.32,1.69,2.82,2.6,4.51l13.6,25.05h-8.8Zm-36.56-74.03v31.99h13.43c2.71,0,5.19-.4,7.45-1.18s4.18-1.92,5.78-3.38c1.6-1.47,2.84-3.23,3.72-5.3,.88-2.07,1.33-4.4,1.33-7,0-4.7-1.52-8.4-4.54-11.09-3.03-2.69-7.4-4.03-13.12-4.03h-14.05Z"/>
        <path class="cls-1" d="M827.85,630.61l-8.91-23.92h-34.7l-8.69,23.92h-8.35l30.81-80.91h7.56l30.64,80.91h-8.35Zm-24.66-66.75c-.26-.71-.53-1.54-.82-2.48-.28-.94-.52-2.01-.71-3.22h-.23c-.22,1.2-.48,2.28-.76,3.22-.28,.94-.56,1.77-.82,2.48l-13.09,36h29.62l-13.2-36Z"/>
        <path class="cls-1" d="M986.29,627.62c-6.24,2.93-13.37,4.4-21.38,4.4-5.72,0-10.91-1.01-15.57-3.02-4.67-2.01-8.64-4.81-11.93-8.38-3.29-3.57-5.83-7.82-7.62-12.75-1.79-4.93-2.68-10.31-2.68-16.14,0-6.13,.95-11.84,2.85-17.12,1.9-5.28,4.62-9.87,8.15-13.77,3.54-3.89,7.81-6.95,12.84-9.17,5.02-2.22,10.65-3.33,16.9-3.33,6.88,0,13.03,1.05,18.45,3.16v8.01c-5.79-2.89-11.98-4.34-18.56-4.34-5.23,0-9.87,.9-13.94,2.71-4.06,1.8-7.48,4.32-10.27,7.53-2.79,3.22-4.91,7.02-6.38,11.4-1.47,4.38-2.2,9.17-2.2,14.36,0,4.66,.66,9.06,1.98,13.17,1.31,4.12,3.26,7.72,5.84,10.8,2.58,3.08,5.78,5.53,9.62,7.33,3.84,1.81,8.29,2.71,13.37,2.71,7.79,0,14.63-1.64,20.54-4.91v7.34Z"/>
        <path class="cls-1" d="M1095.53,630.61h-7.51v-80.91h7.51v80.91Z"/>
        <path class="cls-1" d="M1233.99,632.02c-5.83,0-11.08-1.06-15.74-3.19s-8.62-5.03-11.88-8.72c-3.25-3.69-5.75-8.02-7.5-13.01-1.75-4.98-2.62-10.33-2.62-16.05,0-6.32,.87-12.1,2.62-17.35,1.75-5.25,4.3-9.74,7.64-13.48,3.35-3.74,7.45-6.66,12.3-8.75,4.85-2.09,10.38-3.13,16.59-3.13,5.72,0,10.85,1.02,15.4,3.07,4.55,2.05,8.43,4.89,11.62,8.52s5.65,7.93,7.36,12.89,2.57,10.36,2.57,16.19c0,6.13-.84,11.82-2.51,17.07-1.67,5.25-4.14,9.79-7.39,13.63-3.25,3.84-7.26,6.85-12.02,9.03-4.76,2.18-10.24,3.27-16.45,3.27Zm.62-76.85c-4.89,0-9.23,.93-13.01,2.79-3.78,1.86-6.97,4.38-9.56,7.56-2.6,3.18-4.56,6.9-5.9,11.17-1.34,4.27-2.02,8.81-2.06,13.63-.04,4.59,.56,8.98,1.78,13.17,1.22,4.19,3.06,7.9,5.53,11.11,2.46,3.22,5.58,5.78,9.34,7.7,3.76,1.92,8.16,2.88,13.2,2.88s9.47-.87,13.29-2.62,7.01-4.18,9.56-7.28c2.56-3.1,4.49-6.8,5.78-11.09,1.3-4.29,1.95-8.97,1.95-14.05,0-4.74-.57-9.23-1.72-13.48s-2.93-7.97-5.36-11.14c-2.43-3.18-5.52-5.7-9.28-7.56-3.76-1.86-8.28-2.79-13.54-2.79Z"/>
        <path class="cls-1" d="M1428.43,630.61l-44.91-64.94c-.56-.83-1.12-1.67-1.66-2.54-.55-.87-.99-1.71-1.33-2.54h-.28c.07,.68,.14,1.62,.2,2.82,.06,1.2,.09,2.71,.09,4.51v62.68h-7.51v-80.91h8.29l44.18,64.15c.68,1.02,1.29,1.97,1.83,2.85,.54,.88,1.04,1.7,1.49,2.45h.28c-.15-1.24-.26-2.63-.34-4.18-.08-1.54-.11-3.25-.11-5.13v-60.15h7.56v80.91h-7.79Z"/>
        <path class="cls-1" d="M101.84,655.62l-27.87,80.91h-20.65l-27.53-80.91h19.63l16.87,56.31c.9,3.05,1.45,5.74,1.64,8.07h.34c.26-2.52,.85-5.28,1.75-8.29l16.76-56.08h19.07Z"/>
        <path class="cls-1" d="M165.85,736.53h-48.52v-80.91h46.66v14.84h-28.44v18h26.46v14.78h-26.46v18.51h30.3v14.78Z"/>
        <path class="cls-1" d="M257.39,736.53h-18.39l-33.35-50.84c-1.96-2.97-3.31-5.21-4.06-6.71h-.22c.3,2.86,.45,7.22,.45,13.09v44.46h-17.21v-80.91h19.64l32.1,49.26c1.47,2.22,2.82,4.42,4.06,6.6h.23c-.3-1.88-.45-5.59-.45-11.11v-44.74h17.21v80.91Z"/>
        <path class="cls-1" d="M330.2,736.53h-48.52v-80.91h46.66v14.84h-28.44v18h26.46v14.78h-26.46v18.51h30.3v14.78Z"/>
        <path class="cls-1" d="M407.18,736.53h-65.17v-10.49l41.47-55.57h-38.48v-14.84h62.06v10.21l-40.57,55.91h40.68v14.78Z"/>
        <path class="cls-1" d="M459.05,737.94c-11.58,0-21.03-3.77-28.32-11.31-7.3-7.54-10.95-17.37-10.95-29.48,0-12.79,3.7-23.13,11.11-31.03,7.41-7.9,17.23-11.85,29.45-11.85,11.55,0,20.89,3.78,28.01,11.34,7.13,7.56,10.69,17.53,10.69,29.9s-3.7,22.96-11.09,30.75c-7.39,7.79-17.03,11.68-28.92,11.68Zm.79-67.99c-6.39,0-11.47,2.4-15.24,7.19-3.76,4.8-5.64,11.14-5.64,19.04s1.88,14.35,5.64,19.01c3.76,4.66,8.69,7,14.78,7s11.26-2.27,14.95-6.8c3.69-4.53,5.53-10.82,5.53-18.87s-1.79-14.91-5.36-19.58c-3.57-4.66-8.46-7-14.67-7Z"/>
        <path class="cls-1" d="M566.45,736.53h-48.18v-80.91h18.22v66.13h29.96v14.78Z"/>
        <path class="cls-1" d="M656.8,736.53h-19.86l-5.76-18h-28.78l-5.7,18h-19.75l29.45-80.91h21.61l28.78,80.91Zm-29.79-31.99l-8.69-27.19c-.64-2.03-1.09-4.46-1.35-7.28h-.45c-.19,2.37-.66,4.72-1.41,7.05l-8.8,27.42h20.71Z"/>
        <path class="cls-1" d="M745.46,736.53h-18.39l-33.35-50.84c-1.96-2.97-3.31-5.21-4.06-6.71h-.22c.3,2.86,.45,7.22,.45,13.09v44.46h-17.21v-80.91h19.64l32.1,49.26c1.47,2.22,2.82,4.42,4.06,6.6h.23c-.3-1.88-.45-5.59-.45-11.11v-44.74h17.21v80.91Z"/>
        <path class="cls-1" d="M840.89,736.53h-19.86l-5.75-18h-28.78l-5.7,18h-19.75l29.45-80.91h21.61l28.78,80.91Zm-29.79-31.99l-8.69-27.19c-.64-2.03-1.09-4.46-1.35-7.28h-.45c-.19,2.37-.66,4.72-1.41,7.05l-8.8,27.42h20.71Z"/>
        <path class="cls-1" d="M894.43,736.53v-80.91h28.66c28.74,0,43.11,13.15,43.11,39.44,0,12.6-3.92,22.66-11.76,30.19-7.84,7.52-18.29,11.28-31.34,11.28h-28.66Zm18.22-66.07v51.29h9.03c7.9,0,14.1-2.37,18.59-7.11,4.49-4.74,6.74-11.19,6.74-19.35,0-7.71-2.23-13.78-6.69-18.2-4.46-4.42-10.71-6.63-18.76-6.63h-8.91Z"/>
        <path class="cls-1" d="M1033.92,736.53h-48.52v-80.91h46.66v14.84h-28.44v18h26.46v14.78h-26.46v18.51h30.3v14.78Z"/>
        <path class="cls-1" d="M1108.56,708.65v27.87h-18.22v-80.91h28.55c20.39,0,30.58,8.6,30.58,25.79,0,8.12-2.92,14.7-8.77,19.72-5.85,5.02-13.66,7.53-23.44,7.53h-8.69Zm0-39.04v25.22h7.17c9.7,0,14.56-4.25,14.56-12.75s-4.85-12.47-14.56-12.47h-7.17Z"/>
        <path class="cls-1" d="M1231.41,736.53h-19.86l-5.75-18h-28.78l-5.7,18h-19.75l29.45-80.91h21.61l28.78,80.91Zm-29.79-31.99l-8.69-27.19c-.64-2.03-1.09-4.46-1.35-7.28h-.45c-.19,2.37-.66,4.72-1.41,7.05l-8.8,27.42h20.71Z"/>
        <path class="cls-1" d="M1247.29,736.53v-80.91h28.66c28.74,0,43.11,13.15,43.11,39.44,0,12.6-3.92,22.66-11.76,30.19s-18.29,11.28-31.34,11.28h-28.66Zm18.22-66.07v51.29h9.03c7.9,0,14.1-2.37,18.59-7.11,4.5-4.74,6.74-11.19,6.74-19.35,0-7.71-2.23-13.78-6.69-18.2-4.46-4.42-10.71-6.63-18.76-6.63h-8.91Z"/>
        <path class="cls-1" d="M1386.79,736.53h-48.52v-80.91h46.66v14.84h-28.44v18h26.46v14.78h-26.46v18.51h30.3v14.78Z"/>
        <path class="cls-1" d="M1453.73,736.53h-48.18v-80.91h18.22v66.13h29.96v14.78Z"/>
      </g>
      <path class="cls-5" d="M808.86,511.74l182.26-333.95s105.84-203.71,286.53-115.84c198.85,96.71,134.44,281.47,134.44,281.47,0,0-21.91,117.77-160.12,157.47-26.16,7.51-53.34,10.85-80.55,10.82l-160.46-.15,41.85-70.44,120.97,2.75c31.75,.72,63.36-6.11,91.48-20.87,1.41-.74,2.82-1.5,4.24-2.29,83.37-46.31,112.23-149.25,59.81-228.92-15.52-23.59-39.03-45.69-74.28-62.02,0,0-128.39-54.57-202.22,80.24l-163.58,301.72h-80.36Z"/>
      <polygon class="cls-1" points="751.09 498.9 507.14 39.9 426.9 39.9 674.05 498.85 751.09 498.9"/>
      <polygon class="cls-2" points="996.99 40.79 753.05 499.79 672.8 499.79 919.96 40.84 996.99 40.79"/>
      <g>
        <circle class="cls-5" cx="1089.38" cy="214.64" r="12.32"/>
        <circle class="cls-5" cx="1116.48" cy="197.4" r="12.32"/>
        <circle class="cls-5" cx="1143.58" cy="182.62" r="12.32"/>
        <circle class="cls-5" cx="1173.13" cy="165.38" r="12.32"/>
        <circle class="cls-5" cx="1200.23" cy="406.78" r="12.32"/>
        <circle class="cls-5" cx="1227.33" cy="389.54" r="12.32"/>
        <circle class="cls-5" cx="1254.42" cy="374.76" r="12.32"/>
        <circle class="cls-5" cx="1283.98" cy="357.52" r="12.32"/>
        <circle class="cls-5" cx="1136.19" cy="234.35" r="12.32"/>
        <circle class="cls-5" cx="1163.28" cy="217.11" r="12.32"/>
        <circle class="cls-5" cx="1079.53" cy="266.37" r="12.32"/>
        <circle class="cls-5" cx="1106.63" cy="249.13" r="12.32"/>
        <circle class="cls-5" cx="1190.38" cy="202.33" r="12.32"/>
        <circle class="cls-5" cx="1219.94" cy="185.09" r="12.32"/>
        <circle class="cls-5" cx="1210.08" cy="357.52" r="12.32"/>
        <circle class="cls-5" cx="1237.18" cy="340.27" r="12.32"/>
        <circle class="cls-5" cx="1153.43" cy="389.54" r="12.32"/>
        <circle class="cls-5" cx="1180.52" cy="372.3" r="12.32"/>
        <circle class="cls-5" cx="1264.28" cy="325.49" r="12.32"/>
        <circle class="cls-5" cx="1293.84" cy="308.25" r="12.32"/>
        <circle class="cls-5" cx="1182.99" cy="249.13" r="12.32"/>
        <circle class="cls-5" cx="1210.08" cy="231.89" r="12.32"/>
        <circle class="cls-5" cx="1237.18" cy="217.11" r="12.32"/>
        <circle class="cls-5" cx="1266.74" cy="199.86" r="12.32"/>
        <circle class="cls-5" cx="1072.14" cy="313.18" r="12.32"/>
        <circle class="cls-5" cx="1099.24" cy="295.93" r="12.32"/>
        <circle class="cls-5" cx="1126.33" cy="281.15" r="12.32"/>
        <circle class="cls-5" cx="1155.89" cy="263.91" r="12.32"/>
        <circle class="cls-5" cx="1200.23" cy="278.69" r="12.32"/>
        <circle class="cls-5" cx="1227.33" cy="261.45" r="12.32"/>
        <circle class="cls-5" cx="1254.42" cy="246.67" r="12.32"/>
        <circle class="cls-5" cx="1283.98" cy="229.42" r="12.32"/>
        <circle class="cls-5" cx="1089.38" cy="342.74" r="12.32"/>
        <circle class="cls-5" cx="1116.48" cy="325.49" r="12.32"/>
        <circle class="cls-5" cx="1143.58" cy="310.71" r="12.32"/>
        <circle class="cls-5" cx="1173.13" cy="293.47" r="12.32"/>
        <circle class="cls-5" cx="1219.94" cy="310.71" r="12.32"/>
        <circle class="cls-5" cx="1247.03" cy="293.47" r="12.32"/>
        <circle class="cls-5" cx="1274.13" cy="278.69" r="12.32"/>
        <circle class="cls-5" cx="1303.69" cy="261.45" r="12.32"/>
        <circle class="cls-5" cx="1109.09" cy="374.76" r="12.32"/>
        <circle class="cls-5" cx="1136.19" cy="357.52" r="12.32"/>
        <circle class="cls-5" cx="1163.28" cy="342.74" r="12.32"/>
        <circle class="cls-5" cx="1192.84" cy="325.49" r="12.32"/>
        <path class="cls-5" d="M998.24,411.71l24.63-54.19,.78,3.64c4.27,19.95,15.31,37.81,31.24,50.55h0s-56.66,0-56.66,0Z"/>
      </g>
      <g>
        <circle class="cls-7" cx="295.82" cy="187.77" r="12.32"/>
        <circle class="cls-7" cx="268.72" cy="172.99" r="12.32"/>
        <circle class="cls-7" cx="239.16" cy="155.75" r="12.32"/>
        <circle class="cls-7" cx="212.07" cy="397.15" r="12.32"/>
        <circle class="cls-7" cx="184.97" cy="379.91" r="12.32"/>
        <circle class="cls-7" cx="157.87" cy="365.13" r="12.32"/>
        <circle class="cls-7" cx="128.31" cy="347.89" r="12.32"/>
        <circle class="cls-7" cx="249.02" cy="207.48" r="12.32"/>
        <circle class="cls-7" cx="305.67" cy="239.5" r="12.32"/>
        <circle class="cls-7" cx="221.92" cy="192.7" r="12.32"/>
        <circle class="cls-7" cx="192.36" cy="175.46" r="12.32"/>
        <circle class="cls-7" cx="202.21" cy="347.89" r="12.32"/>
        <circle class="cls-7" cx="175.12" cy="330.64" r="12.32"/>
        <circle class="cls-7" cx="258.87" cy="379.91" r="12.32"/>
        <circle class="cls-7" cx="231.77" cy="362.67" r="12.32"/>
        <circle class="cls-7" cx="148.02" cy="315.87" r="12.32"/>
        <circle class="cls-7" cx="118.46" cy="298.62" r="12.32"/>
        <circle class="cls-7" cx="229.31" cy="239.5" r="12.32"/>
        <circle class="cls-7" cx="202.21" cy="222.26" r="12.32"/>
        <circle class="cls-7" cx="175.12" cy="207.48" r="12.32"/>
        <circle class="cls-7" cx="145.56" cy="190.24" r="12.32"/>
        <circle class="cls-7" cx="340.16" cy="303.55" r="12.32"/>
        <circle class="cls-7" cx="212.07" cy="269.06" r="12.32"/>
        <circle class="cls-7" cx="184.97" cy="251.82" r="12.32"/>
        <circle class="cls-7" cx="157.87" cy="237.04" r="12.32"/>
        <circle class="cls-7" cx="128.31" cy="219.8" r="12.32"/>
        <circle class="cls-7" cx="322.92" cy="333.11" r="12.32"/>
        <circle class="cls-7" cx="295.82" cy="315.87" r="12.32"/>
        <circle class="cls-7" cx="268.72" cy="301.09" r="12.32"/>
        <circle class="cls-7" cx="192.36" cy="301.09" r="12.32"/>
        <circle class="cls-7" cx="165.26" cy="283.84" r="12.32"/>
        <circle class="cls-7" cx="138.17" cy="269.06" r="12.32"/>
        <circle class="cls-7" cx="108.61" cy="251.82" r="12.32"/>
        <circle class="cls-7" cx="303.21" cy="365.13" r="12.32"/>
        <circle class="cls-7" cx="276.11" cy="347.89" r="12.32"/>
        <circle class="cls-7" cx="249.02" cy="333.11" r="12.32"/>
        <circle class="cls-7" cx="219.46" cy="315.87" r="12.32"/>
        <path class="cls-7" d="M414.06,402.08l-24.63-54.19-.78,3.64c-4.27,19.95-15.31,37.81-31.24,50.55h0s56.66,0,56.66,0Z"/>
      </g>
      <path class="cls-6" d="M889.11,511.74l167.88-309.03s83.64-157.23,298.12-87.8c0,0-132.73-141.67-280.1-34.51,0,0-52.32,38.12-87.01,103.13l-179.13,328.21h80.24Z"/>
      <path class="cls-7" d="M331.94,63.56c-35.34-22.39-79.54-36.63-131.61-26.92,39.27-6.75,84.46-2.12,131.61,26.92Z"/>
      <path class="cls-7" d="M49.27,129.46l-.75-.99C-29.44,223.99,9.95,337.01,9.95,337.01c0,0,21.91,117.77,160.12,157.47,26.16,7.51,53.34,10.85,80.55,10.82l160.46-.15-41.85-70.44-120.97,2.75c-31.75,.72-63.36-6.11-91.48-20.87-1.41-.74-2.82-1.5-4.24-2.29-83.37-46.31-112.23-149.25-59.81-228.92,15.52-23.59,39.03-45.69,74.28-62.02,0,0,10.03-4.26,26.08-7.46-77.11-19.09-143.82,13.57-143.82,13.57Z"/>
      <path class="cls-7" d="M394.69,119.31c-7.82-9.23-16.87-18.88-27.08-28.25,7.79,7.26,17.21,16.73,27.08,28.25Z"/>
      <path class="cls-7" d="M318.64,142.56c2.01,1.54,4.02,3.16,6.01,4.85-1.88-1.67-3.84-3.34-5.86-5.01l-.15,.17Z"/>
      <path class="cls-7" d="M365.52,196.28s-5.71-10.71-17.93-25.3c7.58,9.39,14.85,20.19,21.65,32.61l163.58,301.72h80.36s-79.78,0-79.78,0L365.52,196.28Z"/>
      <path class="cls-4" d="M324.65,147.4c9.31,8.27,16.91,16.39,22.94,23.59-7.39-9.15-15.08-16.95-22.94-23.59Z"/>
      <path class="cls-4" d="M347.51,73.98c-5.21-3.79-10.4-7.23-15.56-10.41,13.13,8.32,25.04,17.75,35.67,27.51-11.97-11.15-20.11-17.09-20.11-17.09Z"/>
      <path class="cls-4" d="M434.52,177.11c-12.12-22.71-26.38-42.13-39.82-57.79,23.73,28.01,36.23,52.06,36.23,52.06l182.26,333.95h.46L434.52,177.11Z"/>
      <path class="cls-4" d="M430.92,171.37s-12.5-24.05-36.23-52.06c-9.87-11.51-19.28-20.98-27.08-28.25-10.63-9.75-22.54-19.19-35.67-27.51-47.15-29.04-92.34-33.67-131.61-26.92-49.6,8.52-89.76,35.13-112.5,53.46-3.65,2.94-6.84,5.66-9.55,8.06-7.06,6.24-10.88,10.32-10.88,10.32,125.36-40.58,206-3.73,251.39,33.9,2.02,1.67,3.98,3.35,5.86,5.01,7.86,6.64,15.55,14.44,22.94,23.59,12.22,14.59,17.93,25.3,17.93,25.3l167.88,309.03h79.78L430.92,171.37Z"/>
      <path class="cls-7" d="M229.76,276.6c23.75-41.75,68.44-67.17,116.47-66.23l273.69,5.35s178.02,5.03,223.71-215.72c0,0,57.51,185.42-108.49,260.54,0,0-59.01,26.63-132.66,24.64l-373.85-6.58,1.14-2Z"/>
      <g>
        <polygon class="cls-3" points="932.44 68.39 937.74 79.14 949.61 80.86 941.02 89.23 943.05 101.05 932.44 95.47 921.83 101.05 923.85 89.23 915.27 80.86 927.13 79.14 932.44 68.39"/>
        <polygon class="cls-3" points="909.97 113.32 915.28 124.07 927.14 125.8 918.55 134.17 920.58 145.98 909.97 140.4 899.36 145.98 901.38 134.17 892.8 125.8 904.66 124.07 909.97 113.32"/>
        <polygon class="cls-3" points="884.29 158.26 889.6 169.01 901.46 170.74 892.88 179.1 894.9 190.92 884.29 185.34 873.68 190.92 875.71 179.1 867.12 170.74 878.99 169.01 884.29 158.26"/>
        <polygon class="cls-3" points="861.82 203.2 867.13 213.95 878.99 215.67 870.41 224.04 872.43 235.86 861.82 230.28 851.21 235.86 853.24 224.04 844.65 215.67 856.52 213.95 861.82 203.2"/>
        <polygon class="cls-3" points="839.35 248.13 844.66 258.89 856.52 260.61 847.94 268.98 849.97 280.79 839.35 275.21 828.74 280.79 830.77 268.98 822.18 260.61 834.05 258.89 839.35 248.13"/>
        <polygon class="cls-3" points="816.89 293.07 822.19 303.82 834.06 305.55 825.47 313.91 827.5 325.73 816.89 320.15 806.27 325.73 808.3 313.91 799.72 305.55 811.58 303.82 816.89 293.07"/>
        <polygon class="cls-3" points="791.21 338.01 796.51 348.76 808.38 350.48 799.79 358.85 801.82 370.67 791.21 365.09 780.6 370.67 782.62 358.85 774.04 350.48 785.9 348.76 791.21 338.01"/>
        <polygon class="cls-3" points="768.74 382.95 774.05 393.7 785.91 395.42 777.32 403.79 779.35 415.6 768.74 410.03 758.13 415.6 760.15 403.79 751.57 395.42 763.43 393.7 768.74 382.95"/>
      </g>
      <path class="cls-4" d="M343.46,210.39l243.32,4.03c48.53,.8,96.57-11.52,138-36.78,48.54-29.6,99.01-82.65,119.93-177.64,0,0,47.53,275.7-395.49,271.9l-220.56,7.61,2.97-5.23c22.79-40.15,65.67-64.65,111.83-63.88Z"/>
    </g>
  </g>
</svg>