<?xml version="1.0" encoding="UTF-8"?>
<svg id="Layer_2" data-name="Layer 2" xmlns="http://www.w3.org/2000/svg" viewBox="0 0 1594.61 817.91">
  <defs>
    <style>
      .cls-1 {
        fill: #fff;
      }
    </style>
  </defs>
  <g id="Capa_1" data-name="Capa 1">
    <circle class="cls-1" cx="1194.96" cy="243.9" r="13.51"/>
    <circle class="cls-1" cx="1224.68" cy="224.99" r="13.51" transform="translate(548.15 1270.35) rotate(-67.5)"/>
    <circle class="cls-1" cx="1254.4" cy="208.78" r="13.51" transform="translate(-17.24 203.63) rotate(-9.22)"/>
    <circle class="cls-1" cx="1286.83" cy="189.86" r="13.51" transform="translate(-13.8 208.58) rotate(-9.22)"/>
    <circle class="cls-1" cx="1316.55" cy="454.66" r="13.51" transform="translate(-55.83 216.76) rotate(-9.22)"/>
    <path class="cls-1" d="M1346.27,449.26c7.46,0,13.51-6.05,13.51-13.51s-6.05-13.51-13.51-13.51-13.51,6.05-13.51,13.51,6.05,13.51,13.51,13.51Z"/>
    <circle class="cls-1" cx="1375.99" cy="419.54" r="13.51" transform="translate(-49.43 225.83) rotate(-9.22)"/>
    <circle class="cls-1" cx="1408.42" cy="400.62" r="13.51" transform="translate(499.31 1548.52) rotate(-67.5)"/>
    <circle class="cls-1" cx="1246.3" cy="265.52" r="13.51"/>
    <path class="cls-1" d="M1262.51,246.6c0,7.46,6.05,13.51,13.51,13.51s13.51-6.05,13.51-13.51-6.05-13.51-13.51-13.51-13.51,6.05-13.51,13.51Z"/>
    <circle class="cls-1" cx="1184.15" cy="300.65" r="13.51"/>
    <circle class="cls-1" cx="1213.87" cy="281.73" r="13.51"/>
    <circle class="cls-1" cx="1305.74" cy="230.39" r="13.51"/>
    <circle class="cls-1" cx="1338.16" cy="211.48" r="13.51" transform="translate(-16.6 217.08) rotate(-9.22)"/>
    <circle class="cls-1" cx="1327.36" cy="400.62" r="13.51"/>
    <circle class="cls-1" cx="1357.08" cy="381.71" r="13.51"/>
    <path class="cls-1" d="M1265.21,449.26c7.46,0,13.51-6.05,13.51-13.51s-6.05-13.51-13.51-13.51-13.51,6.05-13.51,13.51,6.05,13.51,13.51,13.51Z"/>
    <path class="cls-1" d="M1294.93,430.34c7.46,0,13.51-6.05,13.51-13.51s-6.05-13.51-13.51-13.51-13.51,6.05-13.51,13.51,6.05,13.51,13.51,13.51Z"/>
    <circle class="cls-1" cx="1386.8" cy="365.49" r="13.51"/>
    <circle class="cls-1" cx="1419.23" cy="346.58" r="13.51"/>
    <circle class="cls-1" cx="1297.63" cy="281.73" r="13.51" transform="translate(-28.37 211.5) rotate(-9.22)"/>
    <circle class="cls-1" cx="1327.36" cy="262.82" r="13.51" transform="translate(576.59 1388.56) rotate(-67.5)"/>
    <path class="cls-1" d="M1357.08,233.09c-7.46,0-13.51,6.05-13.51,13.51s6.05,13.51,13.51,13.51,13.51-6.05,13.51-13.51-6.05-13.51-13.51-13.51Z"/>
    <path class="cls-1" d="M1389.5,214.18c-7.46,0-13.51,6.05-13.51,13.51s6.05,13.51,13.51,13.51,13.51-6.05,13.51-13.51-6.05-13.51-13.51-13.51Z"/>
    <circle class="cls-1" cx="1176.04" cy="351.98" r="13.51"/>
    <circle class="cls-1" cx="1205.76" cy="333.07" r="13.51"/>
    <circle class="cls-1" cx="1235.49" cy="316.86" r="13.51"/>
    <circle class="cls-1" cx="1267.91" cy="297.94" r="13.51"/>
    <circle class="cls-1" cx="1316.55" cy="314.16" r="13.51"/>
    <circle class="cls-1" cx="1346.27" cy="295.24" r="13.51" transform="translate(-29.91 219.46) rotate(-9.22)"/>
    <path class="cls-1" d="M1362.48,279.03c0,7.46,6.05,13.51,13.51,13.51s13.51-6.05,13.51-13.51-6.05-13.51-13.51-13.51-13.51,6.05-13.51,13.51Z"/>
    <path class="cls-1" d="M1408.42,246.6c-7.46,0-13.51,6.05-13.51,13.51s6.05,13.51,13.51,13.51,13.51-6.05,13.51-13.51-6.05-13.51-13.51-13.51Z"/>
    <path class="cls-1" d="M1194.96,397.92c7.46,0,13.51-6.05,13.51-13.51s-6.05-13.51-13.51-13.51-13.51,6.05-13.51,13.51,6.05,13.51,13.51,13.51Z"/>
    <circle class="cls-1" cx="1224.68" cy="365.49" r="13.51"/>
    <circle class="cls-1" cx="1254.4" cy="349.28" r="13.51" transform="translate(451.67 1374.53) rotate(-67.5)"/>
    <circle class="cls-1" cx="1286.83" cy="330.37" r="13.51" transform="translate(489.16 1392.81) rotate(-67.5)"/>
    <circle class="cls-1" cx="1338.16" cy="349.28" r="13.51" transform="translate(503.38 1451.92) rotate(-67.5)"/>
    <circle class="cls-1" cx="1367.89" cy="330.37" r="13.51" transform="translate(-35.26 223.38) rotate(-9.22)"/>
    <circle class="cls-1" cx="1397.61" cy="314.16" r="13.51" transform="translate(572.53 1485.16) rotate(-67.5)"/>
    <circle class="cls-1" cx="1430.03" cy="295.24" r="13.51"/>
    <circle class="cls-1" cx="1216.57" cy="419.54" r="13.51" transform="translate(-51.49 200.29) rotate(-9.22)"/>
    <circle class="cls-1" cx="1246.3" cy="400.62" r="13.51" transform="translate(399.23 1398.74) rotate(-67.5)"/>
    <path class="cls-1" d="M1289.53,384.41c0-7.46-6.05-13.51-13.51-13.51s-13.51,6.05-13.51,13.51,6.05,13.51,13.51,13.51,13.51-6.05,13.51-13.51Z"/>
    <circle class="cls-1" cx="1308.44" cy="365.49" r="13.51" transform="translate(-41.65 214.31) rotate(-9.22)"/>
    <path class="cls-1" d="M1157.13,460.07c-17.47-13.98-29.58-33.57-34.27-55.45l-.86-3.99-27.02,59.45h62.15Z"/>
    <circle class="cls-1" cx="324.49" cy="214.43" r="13.51"/>
    <path class="cls-1" d="M294.76,211.72c7.46,0,13.51-6.05,13.51-13.51s-6.05-13.51-13.51-13.51-13.51,6.05-13.51,13.51,6.05,13.51,13.51,13.51Z"/>
    <circle class="cls-1" cx="262.34" cy="179.3" r="13.51" transform="translate(-25.33 44.34) rotate(-9.22)"/>
    <circle class="cls-1" cx="232.62" cy="444.1" r="13.51" transform="translate(-68.13 43) rotate(-9.22)"/>
    <circle class="cls-1" cx="202.9" cy="425.19" r="13.51" transform="translate(-267.57 449.93) rotate(-67.5)"/>
    <circle class="cls-1" cx="173.17" cy="408.97" r="13.51" transform="translate(-63.27 33.02) rotate(-9.22)"/>
    <circle class="cls-1" cx="140.75" cy="390.06" r="13.51" transform="translate(-60.66 27.58) rotate(-9.22)"/>
    <circle class="cls-1" cx="273.15" cy="236.04" r="13.51"/>
    <circle class="cls-1" cx="243.43" cy="219.83" r="13.51"/>
    <circle class="cls-1" cx="211" cy="200.92" r="13.51" transform="translate(-29.46 36.39) rotate(-9.22)"/>
    <circle class="cls-1" cx="221.81" cy="390.06" r="13.51"/>
    <circle class="cls-1" cx="192.09" cy="371.14" r="13.51"/>
    <circle class="cls-1" cx="283.96" cy="425.19" r="13.51"/>
    <circle class="cls-1" cx="254.23" cy="406.27" r="13.51"/>
    <path class="cls-1" d="M175.87,354.93c0-7.46-6.05-13.51-13.51-13.51s-13.51,6.05-13.51,13.51,6.05,13.51,13.51,13.51,13.51-6.05,13.51-13.51Z"/>
    <circle class="cls-1" cx="129.94" cy="336.02" r="13.51" transform="translate(-52.15 25.15) rotate(-9.22)"/>
    <circle class="cls-1" cx="251.53" cy="271.17" r="13.51"/>
    <circle class="cls-1" cx="221.81" cy="252.25" r="13.51"/>
    <circle class="cls-1" cx="192.09" cy="236.04" r="13.51" transform="translate(-99.5 323.18) rotate(-67.5)"/>
    <path class="cls-1" d="M159.66,203.62c-7.46,0-13.51,6.05-13.51,13.51s6.05,13.51,13.51,13.51,13.51-6.05,13.51-13.51-6.05-13.51-13.51-13.51Z"/>
    <path class="cls-1" d="M386.63,341.42c0-7.46-6.05-13.51-13.51-13.51s-13.51,6.05-13.51,13.51,6.05,13.51,13.51,13.51,13.51-6.05,13.51-13.51Z"/>
    <circle class="cls-1" cx="232.62" cy="303.59" r="13.51" transform="translate(-136.88 402.32) rotate(-67.5)"/>
    <circle class="cls-1" cx="202.9" cy="284.68" r="13.51" transform="translate(-42.98 36.18) rotate(-9.22)"/>
    <circle class="cls-1" cx="173.17" cy="268.47" r="13.51"/>
    <circle class="cls-1" cx="140.75" cy="249.55" r="13.51"/>
    <path class="cls-1" d="M340.7,373.85c0,7.46,6.05,13.51,13.51,13.51s13.51-6.05,13.51-13.51-6.05-13.51-13.51-13.51-13.51,6.05-13.51,13.51Z"/>
    <path class="cls-1" d="M324.49,341.42c-7.46,0-13.51,6.05-13.51,13.51s6.05,13.51,13.51,13.51,13.51-6.05,13.51-13.51-6.05-13.51-13.51-13.51Z"/>
    <circle class="cls-1" cx="294.76" cy="338.72" r="13.51" transform="translate(-130.97 481.42) rotate(-67.5)"/>
    <circle class="cls-1" cx="211" cy="338.72" r="13.51"/>
    <circle class="cls-1" cx="181.28" cy="319.81" r="13.51" transform="translate(-183.56 364.9) rotate(-67.5)"/>
    <circle class="cls-1" cx="151.56" cy="303.59" r="13.51" transform="translate(-46.67 28.2) rotate(-9.22)"/>
    <circle class="cls-1" cx="119.13" cy="284.68" r="13.51"/>
    <circle class="cls-1" cx="332.59" cy="408.97" r="13.51"/>
    <circle class="cls-1" cx="302.87" cy="390.06" r="13.51"/>
    <path class="cls-1" d="M259.64,373.85c0,7.46,6.05,13.51,13.51,13.51s13.51-6.05,13.51-13.51-6.05-13.51-13.51-13.51-13.51,6.05-13.51,13.51Z"/>
    <path class="cls-1" d="M240.72,341.42c-7.46,0-13.51,6.05-13.51,13.51s6.05,13.51,13.51,13.51,13.51-6.05,13.51-13.51-6.05-13.51-13.51-13.51Z"/>
    <path class="cls-1" d="M426.31,394.05c-4.69,21.88-16.8,41.47-34.27,55.45h62.15l-27.02-59.45-.86,3.99Z"/>
    <path class="cls-1" d="M1486.43,134.5s-145.59-155.4-307.25-37.86c0,0-57.39,41.82-95.44,113.12l-196.49,360.02h88.02l184.15-338.98s91.75-172.46,327.01-96.31Z"/>
    <path class="cls-1" d="M349.52,164.83c2.21,1.69,4.4,3.47,6.59,5.31-2.06-1.83-4.21-3.67-6.42-5.5l-.17,.18Z"/>
    <path class="cls-1" d="M1504.75,157.42l-.82,1.09s-73.18-35.82-157.76-14.88c17.61,3.51,28.61,8.18,28.61,8.18,38.67,17.92,64.45,42.15,81.48,68.03,57.5,87.39,25.85,200.31-65.6,251.11-1.56,.87-3.11,1.7-4.65,2.51-30.85,16.18-65.52,23.68-100.35,22.89l-132.69-3.02-45.9,77.27,176.01,.17c29.85,.03,59.67-3.63,88.36-11.87,151.6-43.54,175.63-172.73,175.63-172.73,0,0,43.21-123.97-42.31-228.75Z"/>
    <path class="cls-1" d="M925.12,9.67c-.09-1.47-.2-2.82-.3-4.04-.58-2.39-1.09-4.3-1.46-5.63-3.89,17.19-8.67,33.11-14.17,47.87-27.4,73.43-72.84,117.87-116.85,144.71-42.22,25.74-90.69,39.22-140.03,40.3l-96.02-180.66h-88.02l96.64,179.45-73.15-1.21-15.14-27.73c-12.56-23.54-27.22-43.8-41.23-60.47-.82-.97-1.64-1.98-2.45-2.92-1.37-1.6-2.74-3.17-4.1-4.7-6.35-7.24-13.38-14.63-21.04-21.95-1.56-1.51-3.1-2.97-4.57-4.34,0,0,0,0,0,0-13.12-12.23-22.05-18.74-22.05-18.74-5.71-4.16-11.4-7.93-17.07-11.42,7.2,4.56,14.07,9.43,20.59,14.49-6.52-5.06-13.39-9.93-20.59-14.49-43.64-26.88-85.74-34.69-123.71-32.03,37.97-2.66,80.07,5.15,123.71,32.03-38.76-24.56-87.24-40.18-144.35-29.53,0,0,0,0-.01,0-54.4,9.35-98.45,38.53-123.4,58.64-4,3.23-7.5,6.21-10.48,8.85-7.74,6.85-11.94,11.32-11.94,11.32,137.51-44.51,225.97-4.09,275.75,37.18,2.21,1.83,4.36,3.67,6.42,5.5,6.47,5.46,12.83,11.64,19.03,18.62-6.2-6.98-12.56-13.16-19.03-18.62,10.17,9.03,18.49,17.92,25.09,25.78,.03,.03,.05,.06,.08,.09,7.74,9.59,15.17,20.53,22.18,32.98l-1.97-.03-27.42-.45c-1.01-.02-2.01,0-3.02,0-41.54,.93-80.29,19.78-106.66,51.07-4.8,5.91-9.16,12.25-12.99,19l-2.7,4.76,18.46,.32,173.59-5.99h.35s48.99-1.7,48.99-1.7c12.62,.11,24.87,0,36.77-.29,.17,0,.34,0,.5-.01,24.72-.62,47.92-2.1,69.7-4.32,29-2.96,55.47-7.25,79.61-12.65,237.96-53.19,250.85-213.75,248.67-265.03,.23-.99,.49-1.95,.72-2.95-.41-1.49-.66-2.28-.66-2.28-.09,.41-.18,.8-.27,1.21Z"/>
    <path class="cls-1" d="M272.33,488.3c-34.83,.79-69.5-6.71-100.35-22.89-1.54-.81-3.09-1.64-4.65-2.51-91.45-50.79-123.1-163.71-65.6-251.11,17.03-25.88,42.81-50.12,81.48-68.03,0,0,11-4.67,28.61-8.18-84.58-20.94-157.76,14.88-157.76,14.88l-.82-1.09C-32.29,254.15,10.91,378.12,10.91,378.12c0,0,24.03,129.18,175.63,172.73,28.69,8.24,58.51,11.9,88.36,11.87l176.01-.17-45.9-77.27-132.69,3.02Z"/>
    <path class="cls-1" d="M727.33,533.9l42.93-77.81-71.6-135.99c62.26-5.36,107.72-25.86,107.72-25.86,160.74-72.74,130.44-239.71,121.12-277.88,3.42,39.43,4.16,215.43-245.45,272.48-24.06,5.5-50.45,9.88-79.38,12.94-21.7,2.3-44.83,3.84-69.5,4.54-.17,0-.33,.01-.5,.02-12.88,.36-26.18,.48-39.91,.37l-45.9,1.58h-.36s-176.66,6.1-176.66,6.1l181.7,3.2,132.92,245.16h88.15s.51,0,.51,0l-132.95-243.6,72.54,1.27,114.63,213.48Z"/>
    <path class="cls-1" d="M1009.11,53.26l-227.63,422.69-.03-.05-42.81,78.41,.32,.59-.96,1.79h88.02L1093.61,53.2l-84.5,.06Zm-161.97,415.75l-10.9-6.1-11.2,5.52,2.43-12.25-8.71-8.94,12.4-1.47,5.82-11.05,5.23,11.34,12.3,2.12-9.16,8.48,1.79,12.36Zm24.61-46.17l-10.9-6.1-11.2,5.52,2.43-12.25-8.71-8.94,12.4-1.47,5.82-11.05,5.23,11.34,12.3,2.12-9.16,8.48,1.79,12.36Zm27.95-46.08l-10.9-6.1-11.2,5.52,2.43-12.25-8.71-8.94,12.4-1.47,5.82-11.05,5.23,11.34,12.3,2.12-9.16,8.48,1.79,12.36Zm24.61-46.17l-10.9-6.1-11.2,5.52,2.43-12.25-8.71-8.94,12.4-1.47,5.82-11.05,5.23,11.34,12.3,2.12-9.16,8.48,1.79,12.36Zm24.61-46.17l-10.9-6.1-11.2,5.52,2.43-12.25-8.71-8.94,12.4-1.47,5.82-11.05,5.23,11.34,12.3,2.12-9.16,8.48,1.79,12.36Zm24.61-46.17l-10.9-6.1-11.2,5.52,2.43-12.25-8.71-8.94,12.4-1.47,5.82-11.05,5.23,11.34,12.3,2.12-9.16,8.48,1.79,12.36Zm27.95-46.08l-10.9-6.1-11.2,5.52,2.43-12.25-8.71-8.94,12.4-1.47,5.82-11.05,5.23,11.34,12.3,2.12-9.16,8.48,1.79,12.36Zm13.71-52.27l-11.2,5.52,2.43-12.25-8.71-8.94,12.4-1.47,5.82-11.05,5.23,11.34,12.3,2.12-9.16,8.48,1.79,12.36-10.9-6.1Z"/>
    <g>
      <path class="cls-1" d="M47.41,618.97v33.42h32.43v7.49H47.41v40.29h-8.23v-88.75h43.26v7.55H47.41Z"/>
      <path class="cls-1" d="M192.24,700.17v-88.75h43.26v7.55h-35.03v32.55h32.43v7.43h-32.43v33.73h37.01v7.49h-45.24Z"/>
      <path class="cls-1" d="M348.64,700.17v-88.75h23.33c15.18,0,26.65,3.64,34.41,10.92,7.76,7.28,11.64,18.04,11.64,32.28,0,6.85-1.08,13.08-3.25,18.69-2.17,5.61-5.29,10.41-9.38,14.39-4.09,3.98-9.04,7.06-14.85,9.22-5.82,2.17-12.38,3.25-19.68,3.25h-22.22Zm8.23-81.2v73.71h13.62c6.11,0,11.56-.82,16.37-2.47,4.81-1.65,8.88-4.07,12.22-7.27,3.34-3.2,5.89-7.15,7.64-11.85,1.75-4.7,2.63-10.11,2.63-16.21,0-23.93-12.65-35.9-37.94-35.9h-14.54Z"/>
      <path class="cls-1" d="M528.44,700.17v-88.75h43.26v7.55h-35.03v32.55h32.43v7.43h-32.43v33.73h37.01v7.49h-45.24Z"/>
      <path class="cls-1" d="M733.17,700.17l-13.37-25.44c-1.32-2.52-2.6-4.62-3.84-6.31-1.24-1.69-2.52-3.04-3.84-4.06-1.32-1.01-2.73-1.73-4.24-2.17-1.51-.43-3.19-.65-5.05-.65h-9.78v38.62h-8.23v-88.75h25.56c3.34,0,6.57,.49,9.69,1.48,3.11,.99,5.89,2.46,8.32,4.4,2.43,1.94,4.38,4.37,5.85,7.3,1.46,2.93,2.2,6.33,2.2,10.21,0,3.14-.47,6.02-1.42,8.66-.95,2.64-2.3,4.98-4.05,7.02-1.76,2.04-3.88,3.78-6.38,5.2-2.5,1.42-5.31,2.49-8.45,3.19v.25c1.2,.49,2.29,1.13,3.28,1.92,.99,.78,1.95,1.73,2.88,2.85,.93,1.11,1.85,2.39,2.75,3.84,.91,1.44,1.86,3.09,2.85,4.95l14.92,27.48h-9.66Zm-40.1-81.2v35.09h14.73c2.97,0,5.69-.43,8.17-1.3s4.59-2.1,6.34-3.71c1.75-1.61,3.11-3.55,4.08-5.82,.97-2.27,1.45-4.83,1.45-7.67,0-5.16-1.66-9.21-4.98-12.16-3.32-2.95-8.12-4.43-14.39-4.43h-15.41Z"/>
      <path class="cls-1" d="M908.08,700.17l-9.78-26.24h-38.06l-9.53,26.24h-9.16l33.79-88.75h8.29l33.61,88.75h-9.16Zm-27.05-73.22c-.29-.78-.59-1.69-.9-2.72-.31-1.03-.57-2.21-.77-3.53h-.25c-.25,1.32-.53,2.5-.84,3.53-.31,1.03-.61,1.94-.9,2.72l-14.36,39.48h32.49l-14.48-39.48Z"/>
      <path class="cls-1" d="M1081.87,696.9c-6.85,3.22-14.67,4.83-23.46,4.83-6.27,0-11.97-1.11-17.08-3.31-5.12-2.21-9.48-5.27-13.09-9.19-3.61-3.92-6.4-8.58-8.35-13.99-1.96-5.4-2.94-11.3-2.94-17.7,0-6.73,1.04-12.99,3.13-18.78,2.08-5.8,5.06-10.83,8.94-15.1,3.88-4.27,8.57-7.62,14.08-10.06,5.51-2.43,11.68-3.65,18.53-3.65,7.55,0,14.3,1.15,20.24,3.46v8.79c-6.35-3.18-13.14-4.77-20.36-4.77-5.74,0-10.83,.99-15.29,2.97-4.46,1.98-8.21,4.74-11.26,8.26-3.06,3.53-5.39,7.69-6.99,12.5-1.61,4.81-2.41,10.06-2.41,15.75,0,5.12,.72,9.93,2.17,14.45,1.44,4.52,3.58,8.47,6.4,11.85,2.83,3.38,6.34,6.07,10.55,8.05,4.21,1.98,9.1,2.97,14.67,2.97,8.54,0,16.05-1.79,22.53-5.39v8.05Z"/>
      <path class="cls-1" d="M1201.7,700.17h-8.23v-88.75h8.23v88.75Z"/>
      <path class="cls-1" d="M1353.58,701.72c-6.4,0-12.15-1.17-17.27-3.5s-9.46-5.52-13.03-9.56c-3.57-4.04-6.31-8.8-8.23-14.27-1.92-5.47-2.88-11.33-2.88-17.61,0-6.93,.96-13.28,2.88-19.03,1.92-5.76,4.71-10.68,8.39-14.79,3.67-4.1,8.17-7.3,13.49-9.59,5.32-2.29,11.39-3.43,18.2-3.43,6.27,0,11.9,1.12,16.89,3.37,4.99,2.25,9.24,5.36,12.75,9.34,3.51,3.98,6.2,8.69,8.08,14.14,1.88,5.45,2.82,11.37,2.82,17.76,0,6.73-.92,12.97-2.75,18.72-1.84,5.76-4.54,10.74-8.11,14.95-3.57,4.21-7.96,7.51-13.18,9.9-5.22,2.39-11.23,3.59-18.04,3.59Zm.68-84.3c-5.36,0-10.12,1.02-14.27,3.07-4.14,2.04-7.64,4.81-10.49,8.29-2.85,3.49-5,7.57-6.47,12.26-1.47,4.68-2.22,9.66-2.26,14.95-.04,5.03,.61,9.85,1.95,14.45,1.34,4.6,3.36,8.66,6.07,12.19,2.7,3.53,6.12,6.34,10.24,8.45,4.13,2.1,8.95,3.16,14.48,3.16s10.39-.96,14.58-2.88c4.19-1.92,7.68-4.58,10.49-7.98,2.81-3.4,4.92-7.46,6.34-12.16,1.42-4.7,2.13-9.84,2.13-15.41,0-5.2-.63-10.13-1.89-14.79s-3.22-8.74-5.88-12.22c-2.66-3.48-6.06-6.25-10.18-8.29-4.13-2.04-9.08-3.07-14.85-3.07Z"/>
      <path class="cls-1" d="M1566.86,700.17l-49.27-71.24c-.62-.91-1.23-1.84-1.82-2.78-.6-.95-1.08-1.88-1.45-2.78h-.31c.08,.74,.15,1.77,.22,3.09,.06,1.32,.09,2.97,.09,4.95v68.76h-8.23v-88.75h9.1l48.46,70.37c.74,1.11,1.41,2.16,2.01,3.13,.6,.97,1.14,1.87,1.64,2.69h.31c-.16-1.36-.29-2.89-.37-4.58-.08-1.69-.12-3.57-.12-5.63v-65.97h8.29v88.75h-8.54Z"/>
      <path class="cls-1" d="M111.71,727.61l-30.57,88.75h-22.65l-30.2-88.75h21.54l18.51,61.77c.99,3.34,1.59,6.29,1.79,8.85h.37c.29-2.76,.93-5.8,1.92-9.1l18.38-61.52h20.92Z"/>
      <path class="cls-1" d="M181.92,816.36h-53.22v-88.75h51.18v16.28h-31.19v19.74h29.03v16.21h-29.03v20.3h33.24v16.21Z"/>
      <path class="cls-1" d="M282.33,816.36h-20.18l-36.58-55.76c-2.14-3.26-3.63-5.72-4.46-7.36h-.25c.33,3.14,.49,7.92,.49,14.36v48.77h-18.88v-88.75h21.54l35.21,54.03c1.61,2.44,3.1,4.85,4.46,7.24h.25c-.33-2.06-.49-6.13-.49-12.19v-49.08h18.88v88.75Z"/>
      <path class="cls-1" d="M362.2,816.36h-53.22v-88.75h51.18v16.28h-31.19v19.74h29.03v16.21h-29.03v20.3h33.24v16.21Z"/>
      <path class="cls-1" d="M446.64,816.36h-71.48v-11.51l45.49-60.96h-42.21v-16.28h68.08v11.2l-44.5,61.33h44.62v16.21Z"/>
      <path class="cls-1" d="M503.54,817.91c-12.71,0-23.06-4.14-31.07-12.41-8-8.27-12.01-19.05-12.01-32.34,0-14.03,4.06-25.37,12.19-34.04,8.13-8.66,18.9-13,32.31-13,12.67,0,22.91,4.15,30.73,12.44,7.82,8.29,11.73,19.23,11.73,32.8s-4.05,25.19-12.16,33.73c-8.11,8.54-18.68,12.81-31.72,12.81Zm.87-74.58c-7.01,0-12.59,2.63-16.71,7.89-4.13,5.26-6.19,12.22-6.19,20.89s2.06,15.74,6.19,20.86c4.13,5.12,9.53,7.67,16.22,7.67s12.36-2.48,16.4-7.46c4.04-4.97,6.07-11.87,6.07-20.7s-1.96-16.36-5.88-21.48c-3.92-5.12-9.28-7.67-16.09-7.67Z"/>
      <path class="cls-1" d="M621.34,816.36h-52.85v-88.75h19.99v72.54h32.86v16.21Z"/>
      <path class="cls-1" d="M720.45,816.36h-21.79l-6.31-19.74h-31.56l-6.25,19.74h-21.66l32.31-88.75h23.7l31.56,88.75Zm-32.68-35.09l-9.53-29.83c-.7-2.23-1.2-4.89-1.48-7.98h-.49c-.21,2.6-.72,5.18-1.55,7.74l-9.65,30.08h22.71Z"/>
      <path class="cls-1" d="M817.71,816.36h-20.18l-36.58-55.76c-2.14-3.26-3.63-5.72-4.46-7.36h-.25c.33,3.14,.49,7.92,.49,14.36v48.77h-18.88v-88.75h21.54l35.21,54.03c1.61,2.44,3.1,4.85,4.46,7.24h.25c-.33-2.06-.49-6.13-.49-12.19v-49.08h18.88v88.75Z"/>
      <path class="cls-1" d="M922.39,816.36h-21.79l-6.31-19.74h-31.56l-6.25,19.74h-21.66l32.31-88.75h23.7l31.56,88.75Zm-32.68-35.09l-9.53-29.83c-.7-2.23-1.2-4.89-1.48-7.98h-.5c-.21,2.6-.72,5.18-1.55,7.74l-9.65,30.08h22.71Z"/>
      <path class="cls-1" d="M981.11,816.36v-88.75h31.44c31.52,0,47.28,14.42,47.28,43.26,0,13.82-4.3,24.86-12.9,33.11-8.6,8.25-20.06,12.38-34.38,12.38h-31.44Zm19.99-72.47v56.26h9.9c8.66,0,15.46-2.6,20.39-7.8,4.93-5.2,7.4-12.27,7.4-21.23,0-8.46-2.45-15.11-7.33-19.96-4.89-4.85-11.75-7.27-20.58-7.27h-9.78Z"/>
      <path class="cls-1" d="M1134.12,816.36h-53.22v-88.75h51.18v16.28h-31.19v19.74h29.03v16.21h-29.03v20.3h33.24v16.21Z"/>
      <path class="cls-1" d="M1215.99,785.79v30.57h-19.99v-88.75h31.32c22.36,0,33.54,9.43,33.54,28.28,0,8.91-3.21,16.12-9.62,21.63-6.42,5.51-14.99,8.26-25.72,8.26h-9.53Zm0-42.83v27.66h7.86c10.64,0,15.97-4.66,15.97-13.99s-5.32-13.68-15.97-13.68h-7.86Z"/>
      <path class="cls-1" d="M1350.75,816.36h-21.79l-6.31-19.74h-31.56l-6.25,19.74h-21.66l32.31-88.75h23.7l31.56,88.75Zm-32.68-35.09l-9.53-29.83c-.7-2.23-1.2-4.89-1.48-7.98h-.5c-.21,2.6-.72,5.18-1.55,7.74l-9.65,30.08h22.71Z"/>
      <path class="cls-1" d="M1368.17,816.36v-88.75h31.44c31.52,0,47.29,14.42,47.29,43.26,0,13.82-4.3,24.86-12.9,33.11-8.6,8.25-20.06,12.38-34.38,12.38h-31.44Zm19.99-72.47v56.26h9.9c8.66,0,15.46-2.6,20.39-7.8,4.93-5.2,7.4-12.27,7.4-21.23,0-8.46-2.44-15.11-7.33-19.96-4.89-4.85-11.75-7.27-20.58-7.27h-9.78Z"/>
      <path class="cls-1" d="M1521.18,816.36h-53.22v-88.75h51.18v16.28h-31.19v19.74h29.03v16.21h-29.03v20.3h33.23v16.21Z"/>
      <path class="cls-1" d="M1594.61,816.36h-52.85v-88.75h19.99v72.54h32.86v16.21Z"/>
    </g>
  </g>
</svg>